<mxfile host="app.diagrams.net" modified="2020-09-18T08:56:57.890Z" agent="5.0 (Windows NT 10.0; Win64; x64) AppleWebKit/537.36 (KHTML, like Gecko) Chrome/85.0.4183.102 Safari/537.36" etag="ZfLdBvHnYOJsB5va2psX" version="13.7.3" type="github">
  <diagram id="-ezdkHv69WB5DABrsDDg" name="Page-1">
    <mxGraphModel dx="1352" dy="755" grid="1" gridSize="10" guides="1" tooltips="1" connect="1" arrows="1" fold="1" page="1" pageScale="1" pageWidth="850" pageHeight="1100" math="0" shadow="0">
      <root>
        <mxCell id="0" />
        <mxCell id="1" parent="0" />
        <mxCell id="unOzRoRd4-qVEqSeojPs-1" value="" style="verticalLabelPosition=bottom;html=1;fillColor=#282828;strokeColor=none;verticalAlign=top;pointerEvents=1;align=center;shape=mxgraph.cisco_safe.people_places_things_icons.icon9;" vertex="1" parent="1">
          <mxGeometry x="100" y="340" width="50" height="45" as="geometry" />
        </mxCell>
        <mxCell id="unOzRoRd4-qVEqSeojPs-3" value="" style="shadow=0;dashed=0;html=1;strokeColor=none;fillColor=#505050;labelPosition=center;verticalLabelPosition=bottom;verticalAlign=top;outlineConnect=0;align=center;shape=mxgraph.office.databases.web_store;" vertex="1" parent="1">
          <mxGeometry x="220" y="316.25" width="70" height="92.5" as="geometry" />
        </mxCell>
        <mxCell id="unOzRoRd4-qVEqSeojPs-6" value="" style="strokeWidth=2;html=1;shape=mxgraph.flowchart.annotation_2;align=left;labelPosition=right;pointerEvents=1;" vertex="1" parent="1">
          <mxGeometry x="290" y="291.25" width="70" height="142.5" as="geometry" />
        </mxCell>
        <mxCell id="unOzRoRd4-qVEqSeojPs-11" value="" style="fontStyle=0;verticalAlign=top;align=center;spacingTop=-2;rounded=0;whiteSpace=wrap;html=1;strokeColor=#6c8ebf;strokeWidth=2;dashed=1;container=1;collapsible=0;expand=0;recursiveResize=0;shadow=0;fillColor=#dae8fc;sketch=0;glass=0;" vertex="1" parent="1">
          <mxGeometry x="610.49" y="306.84999999999997" width="110" height="57" as="geometry" />
        </mxCell>
        <mxCell id="unOzRoRd4-qVEqSeojPs-13" value="" style="verticalLabelPosition=bottom;html=1;verticalAlign=top;strokeWidth=1;dashed=0;shape=mxgraph.aws3d.simpleDb2;fillColor=#004C99;strokeColor=#99CCFF;aspect=fixed;rounded=1;shadow=0;comic=0;fontSize=12" vertex="1" parent="1">
          <mxGeometry x="360" y="402" width="52.77" height="56" as="geometry" />
        </mxCell>
        <mxCell id="unOzRoRd4-qVEqSeojPs-14" value="" style="verticalLabelPosition=bottom;html=1;verticalAlign=top;strokeWidth=1;dashed=0;shape=mxgraph.aws3d.dataCenter;fillColor=#ffffff;strokeColor=#5E5E5E;aspect=fixed;rounded=1;shadow=0;comic=0;fontSize=12" vertex="1" parent="1">
          <mxGeometry x="510" y="408.75" width="48.4" height="55.88" as="geometry" />
        </mxCell>
        <mxCell id="unOzRoRd4-qVEqSeojPs-16" value="" style="shadow=0;dashed=0;html=1;strokeColor=none;fillColor=#505050;labelPosition=center;verticalLabelPosition=bottom;verticalAlign=top;outlineConnect=0;align=center;shape=mxgraph.office.databases.database_server_green;" vertex="1" parent="1">
          <mxGeometry x="770" y="313.5" width="70" height="60" as="geometry" />
        </mxCell>
        <mxCell id="unOzRoRd4-qVEqSeojPs-20" value="" style="pointerEvents=1;shadow=0;dashed=0;html=1;strokeColor=none;fillColor=#005F4B;labelPosition=center;verticalLabelPosition=bottom;verticalAlign=top;align=center;outlineConnect=0;shape=mxgraph.veeam2.folder;" vertex="1" parent="1">
          <mxGeometry x="365" y="270.5" width="42" height="43" as="geometry" />
        </mxCell>
        <mxCell id="unOzRoRd4-qVEqSeojPs-27" value="" style="endArrow=classic;html=1;exitX=0.746;exitY=0.531;exitDx=0;exitDy=0;exitPerimeter=0;" edge="1" parent="1" source="unOzRoRd4-qVEqSeojPs-13">
          <mxGeometry width="50" height="50" relative="1" as="geometry">
            <mxPoint x="500" y="440" as="sourcePoint" />
            <mxPoint x="500" y="434" as="targetPoint" />
          </mxGeometry>
        </mxCell>
        <mxCell id="unOzRoRd4-qVEqSeojPs-41" value="" style="edgeStyle=elbowEdgeStyle;elbow=horizontal;endArrow=classic;html=1;" edge="1" parent="1" source="unOzRoRd4-qVEqSeojPs-20" target="unOzRoRd4-qVEqSeojPs-25">
          <mxGeometry width="50" height="50" relative="1" as="geometry">
            <mxPoint x="500" y="440" as="sourcePoint" />
            <mxPoint x="550" y="390" as="targetPoint" />
          </mxGeometry>
        </mxCell>
        <mxCell id="unOzRoRd4-qVEqSeojPs-42" value="" style="endArrow=classic;html=1;" edge="1" parent="1" target="unOzRoRd4-qVEqSeojPs-16">
          <mxGeometry width="50" height="50" relative="1" as="geometry">
            <mxPoint x="730" y="343" as="sourcePoint" />
            <mxPoint x="750.49" y="340" as="targetPoint" />
          </mxGeometry>
        </mxCell>
        <mxCell id="unOzRoRd4-qVEqSeojPs-44" value="" style="pointerEvents=1;shadow=0;dashed=0;html=1;strokeColor=none;fillColor=#005F4B;labelPosition=center;verticalLabelPosition=bottom;verticalAlign=top;align=center;outlineConnect=0;shape=mxgraph.veeam2.file;glass=0;sketch=0;" vertex="1" parent="1">
          <mxGeometry x="900" y="314.52" width="30" height="43.47" as="geometry" />
        </mxCell>
        <mxCell id="unOzRoRd4-qVEqSeojPs-48" value="" style="endArrow=classic;html=1;" edge="1" parent="1" source="unOzRoRd4-qVEqSeojPs-1" target="unOzRoRd4-qVEqSeojPs-3">
          <mxGeometry width="50" height="50" relative="1" as="geometry">
            <mxPoint x="500" y="440" as="sourcePoint" />
            <mxPoint x="550" y="390" as="targetPoint" />
          </mxGeometry>
        </mxCell>
        <mxCell id="unOzRoRd4-qVEqSeojPs-25" value="&lt;b style=&quot;font-size: 16px&quot;&gt;Stack/Panic Info&lt;/b&gt;" style="fontStyle=0;verticalAlign=top;align=center;spacingTop=-2;fillColor=#dae8fc;rounded=0;whiteSpace=wrap;html=1;strokeColor=#6c8ebf;strokeWidth=2;dashed=1;container=1;collapsible=0;expand=0;recursiveResize=0;" vertex="1" parent="1">
          <mxGeometry x="590" y="316.49999999999994" width="110" height="57" as="geometry" />
        </mxCell>
        <mxCell id="unOzRoRd4-qVEqSeojPs-49" value="" style="endArrow=classic;html=1;" edge="1" parent="1" source="unOzRoRd4-qVEqSeojPs-16">
          <mxGeometry width="50" height="50" relative="1" as="geometry">
            <mxPoint x="500" y="440" as="sourcePoint" />
            <mxPoint x="890" y="343.2759090909092" as="targetPoint" />
          </mxGeometry>
        </mxCell>
        <mxCell id="unOzRoRd4-qVEqSeojPs-50" value="Customer" style="text;html=1;resizable=0;autosize=1;align=center;verticalAlign=middle;points=[];fillColor=none;strokeColor=none;rounded=0;shadow=0;glass=0;sketch=0;fontStyle=1" vertex="1" parent="1">
          <mxGeometry x="85" y="395.63" width="70" height="20" as="geometry" />
        </mxCell>
        <mxCell id="unOzRoRd4-qVEqSeojPs-51" value="LogStore" style="text;html=1;resizable=0;autosize=1;align=center;verticalAlign=middle;points=[];fillColor=none;strokeColor=none;rounded=0;shadow=0;glass=0;sketch=0;fontStyle=1" vertex="1" parent="1">
          <mxGeometry x="210" y="413.75" width="70" height="20" as="geometry" />
        </mxCell>
        <mxCell id="unOzRoRd4-qVEqSeojPs-52" value="logs" style="text;html=1;resizable=0;autosize=1;align=center;verticalAlign=middle;points=[];fillColor=none;strokeColor=none;rounded=0;shadow=0;glass=0;sketch=0;fontStyle=1" vertex="1" parent="1">
          <mxGeometry x="366" y="318.4" width="40" height="20" as="geometry" />
        </mxCell>
        <mxCell id="unOzRoRd4-qVEqSeojPs-53" value="Cores" style="text;html=1;resizable=0;autosize=1;align=center;verticalAlign=middle;points=[];fillColor=none;strokeColor=none;rounded=0;shadow=0;glass=0;sketch=0;fontStyle=1" vertex="1" parent="1">
          <mxGeometry x="361.38" y="464.63" width="50" height="20" as="geometry" />
        </mxCell>
        <mxCell id="unOzRoRd4-qVEqSeojPs-54" value="&lt;font style=&quot;font-size: 10px&quot;&gt;Weave Symbols&lt;/font&gt;" style="text;html=1;resizable=0;autosize=1;align=center;verticalAlign=middle;points=[];fillColor=none;strokeColor=none;rounded=0;shadow=0;glass=0;sketch=0;fontStyle=1" vertex="1" parent="1">
          <mxGeometry x="414.06" y="438" width="90" height="20" as="geometry" />
        </mxCell>
        <mxCell id="unOzRoRd4-qVEqSeojPs-56" value="" style="pointerEvents=1;shadow=0;dashed=0;html=1;strokeColor=none;fillColor=#005F4B;labelPosition=center;verticalLabelPosition=bottom;verticalAlign=top;align=center;outlineConnect=0;shape=mxgraph.veeam2.service_application;glass=0;sketch=0;" vertex="1" parent="1">
          <mxGeometry x="430" y="401.25" width="40" height="36.75" as="geometry" />
        </mxCell>
        <mxCell id="unOzRoRd4-qVEqSeojPs-57" value="" style="pointerEvents=1;shadow=0;dashed=0;html=1;strokeColor=none;fillColor=#005F4B;labelPosition=center;verticalLabelPosition=bottom;verticalAlign=top;align=center;outlineConnect=0;shape=mxgraph.veeam2.automation;glass=0;sketch=0;" vertex="1" parent="1">
          <mxGeometry x="570" y="470" width="50" height="44" as="geometry" />
        </mxCell>
        <mxCell id="unOzRoRd4-qVEqSeojPs-58" value="" style="pointerEvents=1;shadow=0;dashed=0;html=1;strokeColor=none;fillColor=#005F4B;labelPosition=center;verticalLabelPosition=bottom;verticalAlign=top;align=center;outlineConnect=0;shape=mxgraph.veeam2.file;glass=0;sketch=0;" vertex="1" parent="1">
          <mxGeometry x="890" y="324.54999999999995" width="30" height="43.47" as="geometry" />
        </mxCell>
        <mxCell id="unOzRoRd4-qVEqSeojPs-63" value="" style="edgeStyle=segmentEdgeStyle;endArrow=classic;html=1;entryX=0.5;entryY=1;entryDx=0;entryDy=0;exitX=0.847;exitY=0.506;exitDx=0;exitDy=0;exitPerimeter=0;" edge="1" parent="1" source="unOzRoRd4-qVEqSeojPs-14" target="unOzRoRd4-qVEqSeojPs-25">
          <mxGeometry width="50" height="50" relative="1" as="geometry">
            <mxPoint x="590" y="445.63" as="sourcePoint" />
            <mxPoint x="640" y="395.63" as="targetPoint" />
          </mxGeometry>
        </mxCell>
        <mxCell id="unOzRoRd4-qVEqSeojPs-67" value="" style="edgeStyle=segmentEdgeStyle;endArrow=classic;html=1;exitX=0.434;exitY=0.953;exitDx=0;exitDy=0;exitPerimeter=0;" edge="1" parent="1" source="unOzRoRd4-qVEqSeojPs-14" target="unOzRoRd4-qVEqSeojPs-57">
          <mxGeometry width="50" height="50" relative="1" as="geometry">
            <mxPoint x="530" y="534.63" as="sourcePoint" />
            <mxPoint x="550" y="492" as="targetPoint" />
            <Array as="points">
              <mxPoint x="531" y="492" />
            </Array>
          </mxGeometry>
        </mxCell>
        <mxCell id="unOzRoRd4-qVEqSeojPs-68" value="" style="edgeStyle=segmentEdgeStyle;endArrow=classic;html=1;entryX=0.5;entryY=1;entryDx=0;entryDy=0;" edge="1" parent="1" source="unOzRoRd4-qVEqSeojPs-57" target="unOzRoRd4-qVEqSeojPs-25">
          <mxGeometry width="50" height="50" relative="1" as="geometry">
            <mxPoint x="600" y="499.63" as="sourcePoint" />
            <mxPoint x="650" y="449.63" as="targetPoint" />
          </mxGeometry>
        </mxCell>
        <mxCell id="unOzRoRd4-qVEqSeojPs-69" value="Cluster" style="text;html=1;resizable=0;autosize=1;align=center;verticalAlign=middle;points=[];fillColor=none;strokeColor=none;rounded=0;shadow=0;glass=0;sketch=0;fontStyle=1" vertex="1" parent="1">
          <mxGeometry x="510" y="385" width="60" height="20" as="geometry" />
        </mxCell>
        <mxCell id="unOzRoRd4-qVEqSeojPs-70" value="Extra Script" style="text;html=1;resizable=0;autosize=1;align=center;verticalAlign=middle;points=[];fillColor=none;strokeColor=none;rounded=0;shadow=0;glass=0;sketch=0;fontStyle=1" vertex="1" parent="1">
          <mxGeometry x="555" y="514" width="80" height="20" as="geometry" />
        </mxCell>
        <mxCell id="unOzRoRd4-qVEqSeojPs-71" value="Jira/Bugzilla" style="text;html=1;resizable=0;autosize=1;align=center;verticalAlign=middle;points=[];fillColor=none;strokeColor=none;rounded=0;shadow=0;glass=0;sketch=0;fontStyle=1" vertex="1" parent="1">
          <mxGeometry x="760" y="375.63" width="90" height="20" as="geometry" />
        </mxCell>
        <mxCell id="unOzRoRd4-qVEqSeojPs-72" value="Known Bugs" style="text;html=1;resizable=0;autosize=1;align=center;verticalAlign=middle;points=[];fillColor=none;strokeColor=none;rounded=0;shadow=0;glass=0;sketch=0;fontStyle=1" vertex="1" parent="1">
          <mxGeometry x="870" y="373.5" width="90" height="20" as="geometry" />
        </mxCell>
        <mxCell id="unOzRoRd4-qVEqSeojPs-74" value="" style="fontStyle=0;verticalAlign=top;align=center;spacingTop=-2;rounded=0;whiteSpace=wrap;html=1;strokeWidth=2;container=1;collapsible=0;expand=0;recursiveResize=0;shadow=0;sketch=0;glass=0;fillColor=none;dashed=1;" vertex="1" parent="1">
          <mxGeometry x="310" y="170" width="550" height="390" as="geometry" />
        </mxCell>
        <mxCell id="unOzRoRd4-qVEqSeojPs-75" value="manually" style="text;html=1;resizable=0;autosize=1;align=center;verticalAlign=middle;points=[];fillColor=none;strokeColor=none;rounded=0;shadow=0;glass=0;dashed=1;labelBackgroundColor=none;sketch=0;fontStyle=3;fontSize=25;fontColor=#FF3333;" vertex="1" parent="unOzRoRd4-qVEqSeojPs-74">
          <mxGeometry x="205" y="10" width="120" height="40" as="geometry" />
        </mxCell>
      </root>
    </mxGraphModel>
  </diagram>
</mxfile>
